<mxfile host="Electron" agent="Mozilla/5.0 (Windows NT 10.0; Win64; x64) AppleWebKit/537.36 (KHTML, like Gecko) draw.io/26.0.16 Chrome/132.0.6834.196 Electron/34.2.0 Safari/537.36" version="26.0.16">
  <diagram id="kgpKYQtTHZ0yAKxKKP6v" name="Page-1">
    <mxGraphModel dx="177" dy="190" grid="1" gridSize="10" guides="1" tooltips="1" connect="1" arrows="1" fold="1" page="1" pageScale="1" pageWidth="850" pageHeight="1100" math="0" shadow="0">
      <root>
        <mxCell id="0" />
        <mxCell id="1" parent="0" />
        <mxCell id="7ErM_vDYkKJWxj6xHm5P-25" value="" style="edgeStyle=orthogonalEdgeStyle;rounded=0;orthogonalLoop=1;jettySize=auto;html=1;" parent="1" source="7ErM_vDYkKJWxj6xHm5P-17" target="7ErM_vDYkKJWxj6xHm5P-18" edge="1">
          <mxGeometry relative="1" as="geometry" />
        </mxCell>
        <mxCell id="7ErM_vDYkKJWxj6xHm5P-17" value="IDLE" style="whiteSpace=wrap;html=1;aspect=fixed;fillColor=#dae8fc;strokeColor=#6c8ebf;" parent="1" vertex="1">
          <mxGeometry x="20" y="250" width="80" height="80" as="geometry" />
        </mxCell>
        <mxCell id="7ErM_vDYkKJWxj6xHm5P-24" value="" style="edgeStyle=orthogonalEdgeStyle;rounded=0;orthogonalLoop=1;jettySize=auto;html=1;" parent="1" source="7ErM_vDYkKJWxj6xHm5P-18" target="7ErM_vDYkKJWxj6xHm5P-19" edge="1">
          <mxGeometry relative="1" as="geometry" />
        </mxCell>
        <mxCell id="7ErM_vDYkKJWxj6xHm5P-18" value="START" style="whiteSpace=wrap;html=1;aspect=fixed;fillColor=#f5f5f5;strokeColor=#666666;fontColor=#333333;" parent="1" vertex="1">
          <mxGeometry x="143" y="250" width="80" height="80" as="geometry" />
        </mxCell>
        <mxCell id="7ErM_vDYkKJWxj6xHm5P-23" value="" style="edgeStyle=orthogonalEdgeStyle;rounded=0;orthogonalLoop=1;jettySize=auto;html=1;" parent="1" source="7ErM_vDYkKJWxj6xHm5P-19" target="7ErM_vDYkKJWxj6xHm5P-20" edge="1">
          <mxGeometry relative="1" as="geometry">
            <Array as="points">
              <mxPoint x="370" y="290" />
              <mxPoint x="380" y="290" />
            </Array>
          </mxGeometry>
        </mxCell>
        <mxCell id="7ErM_vDYkKJWxj6xHm5P-19" value="HOLD" style="whiteSpace=wrap;html=1;aspect=fixed;fillColor=#dae8fc;strokeColor=#6c8ebf;" parent="1" vertex="1">
          <mxGeometry x="267" y="250" width="80" height="80" as="geometry" />
        </mxCell>
        <mxCell id="tAQ7RwGIb8ThjD9OkT08-1" style="edgeStyle=orthogonalEdgeStyle;rounded=0;orthogonalLoop=1;jettySize=auto;html=1;exitX=0;exitY=0.25;exitDx=0;exitDy=0;entryX=1;entryY=0.25;entryDx=0;entryDy=0;" edge="1" parent="1" source="7ErM_vDYkKJWxj6xHm5P-20" target="7ErM_vDYkKJWxj6xHm5P-19">
          <mxGeometry relative="1" as="geometry" />
        </mxCell>
        <mxCell id="7ErM_vDYkKJWxj6xHm5P-20" value="DATA" style="whiteSpace=wrap;html=1;aspect=fixed;fillColor=#f5f5f5;strokeColor=#666666;fontColor=#333333;" parent="1" vertex="1">
          <mxGeometry x="390" y="250" width="80" height="80" as="geometry" />
        </mxCell>
        <mxCell id="7ErM_vDYkKJWxj6xHm5P-28" style="edgeStyle=orthogonalEdgeStyle;rounded=0;orthogonalLoop=1;jettySize=auto;html=1;entryX=0.5;entryY=1;entryDx=0;entryDy=0;" parent="1" source="7ErM_vDYkKJWxj6xHm5P-26" target="7ErM_vDYkKJWxj6xHm5P-17" edge="1">
          <mxGeometry relative="1" as="geometry" />
        </mxCell>
        <mxCell id="7ErM_vDYkKJWxj6xHm5P-42" style="edgeStyle=orthogonalEdgeStyle;rounded=0;orthogonalLoop=1;jettySize=auto;html=1;" parent="1" target="7ErM_vDYkKJWxj6xHm5P-26" edge="1">
          <mxGeometry relative="1" as="geometry">
            <mxPoint x="370" y="380" as="sourcePoint" />
            <Array as="points">
              <mxPoint x="370" y="470" />
            </Array>
          </mxGeometry>
        </mxCell>
        <mxCell id="7ErM_vDYkKJWxj6xHm5P-26" value="STOP" style="whiteSpace=wrap;html=1;aspect=fixed;fillColor=#f5f5f5;strokeColor=#666666;fontColor=#333333;" parent="1" vertex="1">
          <mxGeometry x="267" y="430" width="80" height="80" as="geometry" />
        </mxCell>
        <mxCell id="7ErM_vDYkKJWxj6xHm5P-31" value="" style="shape=flexArrow;endArrow=classic;html=1;rounded=0;fillColor=#f8cecc;strokeColor=#b85450;" parent="1" edge="1">
          <mxGeometry width="50" height="50" relative="1" as="geometry">
            <mxPoint x="60" y="210" as="sourcePoint" />
            <mxPoint x="60" y="250" as="targetPoint" />
          </mxGeometry>
        </mxCell>
        <mxCell id="7ErM_vDYkKJWxj6xHm5P-32" value="CMD" style="text;html=1;align=center;verticalAlign=middle;whiteSpace=wrap;rounded=0;" parent="1" vertex="1">
          <mxGeometry x="30" y="180" width="60" height="30" as="geometry" />
        </mxCell>
        <mxCell id="7ErM_vDYkKJWxj6xHm5P-34" value="" style="shape=flexArrow;endArrow=classic;html=1;rounded=0;fillColor=#f8cecc;strokeColor=#b85450;" parent="1" edge="1">
          <mxGeometry width="50" height="50" relative="1" as="geometry">
            <mxPoint x="307" y="210" as="sourcePoint" />
            <mxPoint x="307" y="250" as="targetPoint" />
          </mxGeometry>
        </mxCell>
        <mxCell id="7ErM_vDYkKJWxj6xHm5P-35" value="CMD" style="text;html=1;align=center;verticalAlign=middle;whiteSpace=wrap;rounded=0;" parent="1" vertex="1">
          <mxGeometry x="277" y="180" width="60" height="30" as="geometry" />
        </mxCell>
        <mxCell id="7ErM_vDYkKJWxj6xHm5P-39" style="edgeStyle=orthogonalEdgeStyle;rounded=0;orthogonalLoop=1;jettySize=auto;html=1;entryX=0.5;entryY=1;entryDx=0;entryDy=0;" parent="1" source="7ErM_vDYkKJWxj6xHm5P-37" target="7ErM_vDYkKJWxj6xHm5P-18" edge="1">
          <mxGeometry relative="1" as="geometry" />
        </mxCell>
        <mxCell id="7ErM_vDYkKJWxj6xHm5P-41" style="edgeStyle=orthogonalEdgeStyle;rounded=0;orthogonalLoop=1;jettySize=auto;html=1;" parent="1" target="7ErM_vDYkKJWxj6xHm5P-37" edge="1">
          <mxGeometry relative="1" as="geometry">
            <mxPoint x="370" y="290" as="sourcePoint" />
            <Array as="points">
              <mxPoint x="370" y="380" />
            </Array>
          </mxGeometry>
        </mxCell>
        <mxCell id="7ErM_vDYkKJWxj6xHm5P-37" value="RE" style="whiteSpace=wrap;html=1;aspect=fixed;fillColor=#f5f5f5;strokeColor=#666666;fontColor=#333333;" parent="1" vertex="1">
          <mxGeometry x="267" y="340" width="80" height="80" as="geometry" />
        </mxCell>
      </root>
    </mxGraphModel>
  </diagram>
</mxfile>
